<svg width="18" height="21" viewBox="0 0 18 21" fill="none" xmlns="http://www.w3.org/2000/svg">
<path d="M9.00012 2.84221L4.46263 7.37971C3.5653 8.27713 2.95424 9.42047 2.70671 10.6652C2.45917 11.9099 2.58628 13.2 3.07196 14.3725C3.55764 15.5449 4.38008 16.547 5.43528 17.2521C6.49049 17.9571 7.73106 18.3334 9.00012 18.3334C10.2692 18.3334 11.5098 17.9571 12.565 17.2521C13.6202 16.547 14.4426 15.5449 14.9283 14.3725C15.414 13.2 15.5411 11.9099 15.2935 10.6652C15.046 9.42047 14.4349 8.27713 13.5376 7.37971L9.00012 2.84221ZM9.00012 0.249878L14.8338 6.08355C15.9876 7.23733 16.7733 8.70734 17.0916 10.3077C17.4099 11.908 17.2465 13.5668 16.6221 15.0743C15.9977 16.5818 14.9403 17.8703 13.5836 18.7768C12.2269 19.6833 10.6318 20.1671 9.00012 20.1671C7.36843 20.1671 5.77338 19.6833 4.41668 18.7768C3.05998 17.8703 2.00256 16.5818 1.37813 15.0743C0.753703 13.5668 0.59032 11.908 0.90864 10.3077C1.22696 8.70734 2.01269 7.23733 3.16646 6.08355L9.00012 0.249878Z" fill="white"/>
</svg>
