<svg width="27" height="33" viewBox="0 0 27 33" fill="none" xmlns="http://www.w3.org/2000/svg">
<path d="M13.5001 32.6032L4.21929 23.3223C2.38375 21.4868 1.13373 19.1481 0.627309 16.6021C0.120892 14.0561 0.38082 11.4171 1.37422 9.01887C2.36763 6.6206 4.04989 4.57076 6.20828 3.12858C8.36668 1.68639 10.9043 0.916626 13.5001 0.916626C16.096 0.916626 18.6336 1.68639 20.792 3.12858C22.9504 4.57076 24.6326 6.6206 25.626 9.01887C26.6194 11.4171 26.8794 14.0561 26.3729 16.6021C25.8665 19.1481 24.6165 21.4868 22.781 23.3223L13.5001 32.6032ZM20.7189 21.2603C22.1464 19.8326 23.1186 18.0136 23.5124 16.0334C23.9062 14.0532 23.704 12.0007 22.9313 10.1354C22.1586 8.27018 20.8502 6.67592 19.1715 5.55426C17.4927 4.4326 15.5191 3.83391 13.5001 3.83391C11.4812 3.83391 9.50752 4.4326 7.82879 5.55426C6.15006 6.67592 4.84163 8.27018 4.06896 10.1354C3.29628 12.0007 3.09406 14.0532 3.48787 16.0334C3.88167 18.0136 4.85382 19.8326 6.28138 21.2603L13.5001 28.479L20.7189 21.2603ZM13.5001 16.9582C12.7266 16.9582 11.9847 16.6509 11.4377 16.1039C10.8907 15.5569 10.5835 14.8151 10.5835 14.0415C10.5835 13.268 10.8907 12.5261 11.4377 11.9791C11.9847 11.4321 12.7266 11.1248 13.5001 11.1248C14.2737 11.1248 15.0155 11.4321 15.5625 11.9791C16.1095 12.5261 16.4168 13.268 16.4168 14.0415C16.4168 14.8151 16.1095 15.5569 15.5625 16.1039C15.0155 16.6509 14.2737 16.9582 13.5001 16.9582Z" fill="white"/>
</svg>
