<svg width="23" height="20" viewBox="0 0 23 20" fill="none" xmlns="http://www.w3.org/2000/svg">
<path fill-rule="evenodd" clip-rule="evenodd" d="M17.5 4.00001C16.9317 4.00001 17.7801 4.00001 17 4.00001C16 2 14 0 10.5 0C7 0 4.56176 2.12215 4 5.50001C1.78249 5.50001 0 7.74206 0 10C0.5 12.5 1 13.5 3.52173 14H17.6495C20.324 14 22.5 11.7835 22.5 9.05945C22.5 6.3354 20.1744 4.00001 17.5 4.00001ZM21.0998 8.86379C21.0998 10.869 19.4815 12.5 17.4916 12.5H4.33634C2.77226 12.5 1.4998 11.2181 1.4998 9.64235C1.4998 8.06616 2.77226 6.78392 4.33634 6.78392C4.44072 6.78392 4.55466 6.79226 4.69489 6.80934L5.15662 6.86733L5.20284 6.40337C5.48808 3.57156 7.8362 1.43607 10.6648 1.43607C12.979 1.43607 15.0558 2.91494 15.8331 5.11636L15.9801 5.53186L16.3988 5.398C16.7542 5.28519 17.1219 5.22798 17.4916 5.22798C19.4815 5.22798 21.0998 6.85899 21.0998 8.86379Z" fill="white"/>
<path fill-rule="evenodd" clip-rule="evenodd" d="M4.12321 16.0214C4.69565 17.0636 5.26809 18.1053 5.84112 19.1475C6.23944 19.8729 7.35212 19.2254 6.9532 18.4995C6.38076 17.4572 5.80833 16.415 5.23529 15.3728C4.83697 14.6474 3.7243 15.2949 4.12321 16.0214Z" fill="white"/>
<path fill-rule="evenodd" clip-rule="evenodd" d="M8.38549 16.0213C8.95789 17.0635 9.53029 18.1051 10.1027 19.1473C10.5016 19.8726 11.6142 19.2251 11.2153 18.4993C10.6429 17.4571 10.0705 16.4149 9.49749 15.3727C9.0992 14.6474 7.986 15.2949 8.38549 16.0213Z" fill="white"/>
<path fill-rule="evenodd" clip-rule="evenodd" d="M12.8646 16.0212C13.4376 17.0633 14.0099 18.1048 14.5822 19.1468C14.9805 19.872 16.0936 19.2247 15.6947 18.4989C15.1224 17.4568 14.5494 16.4148 13.9771 15.3727C13.5788 14.6475 12.4658 15.2948 12.8646 16.0212Z" fill="white"/>
<path fill-rule="evenodd" clip-rule="evenodd" d="M17.1934 16.0212C17.7657 17.0633 18.3386 18.1047 18.911 19.1468C19.3092 19.872 20.4223 19.2246 20.0234 18.4988C19.4505 17.4568 18.8782 16.4147 18.3059 15.3727C17.907 14.6475 16.7945 15.2948 17.1934 16.0212Z" fill="white"/>
</svg>
