<svg width="19" height="16" viewBox="0 0 19 16" fill="none" xmlns="http://www.w3.org/2000/svg">
<path d="M15.0646 7.81581C15.2274 7.88467 15.2274 8.11533 15.0646 8.18419L3.00205 13.2876C2.83055 13.3602 2.66168 13.1796 2.74556 13.0133L4.73684 9.06667L4.8265 8.88497C5.10176 8.3271 5.10176 7.6729 4.8265 7.11503L4.73684 6.93333L2.74556 2.98669C2.66168 2.82044 2.83055 2.63985 3.00205 2.7124L15.0646 7.81581ZM17.7776 8.92345C18.5994 8.58201 18.5994 7.41799 17.7776 7.07655L1.23756 0.203689C0.941259 0.0805667 0.59989 0.149446 0.37451 0.37783C0.148304 0.607052 0.0843849 0.950873 0.213099 1.24608L2.80937 7.20065C3.03162 7.71038 3.03162 8.28962 2.80937 8.79935L0.213099 14.7539C0.0843868 15.0491 0.148304 15.3929 0.374512 15.6222C0.59989 15.8506 0.941259 15.9194 1.23756 15.7963L17.7776 8.92345Z" fill="white"/>
</svg>
